:SAMPLES-PER-SECOND 30
:FULLY-SPECIFIED
:DEGREES
365
root  -4.043133428 38.64177794 10.25955546 -33.05401611 -84.93920135 37.61199951
lowerback  14.88269997 5.481999874 -2.316450119
upperback  4.570919991 6.556910038 -2.004440069
thorax  -3.473109961 3.151050091 -1.949730039
lowerneck  -3.695090055 4.418449879 -5.332970142
upperneck  2.821150064 5.91094017 7.302820206
head  1.140859962 3.021670103 3.405719995
lclavicle  0 -9.442270133e-015 7.951389973e-016
lhumerus  -9.984350204 -6.81882 79.60549927
lradius  2.485088311e-031 -2.508621159e-031 134.7299957
lwrist  -7.062250077e-031 8.827812596e-031 49.86669922
lhand  -1.496451383e-031 -27.76390076 20.11240005
lfingers  90 7.125020027 -90
lthumb  89.89689403 5.08795885 91.16245106
rclavicle  0 -9.442270133e-015 7.951389973e-016
rhumerus  -16.58939934 15.91009998 -88.33730316
rradius  -4.121258746e-032 3.506992487e-031 96.70240021
rwrist  1.059337512e-030 7.062250077e-031 -58.39849854
rhand  -7.920061211e-032 -33.2840004 9.303460121
rfingers  -90 -7.125020027 -90
rthumb  -92.93752616 -24.25625642 -97.11982154
rfemur  -13.1218996 13.43340015 3.600610018
rtibia  -0 0 52.3429985
rfoot  -4.836357646e-032 -24.1257 -1.289059997
rtoes  5.373923086 19.29304026 -105.8922705
lfemur  -30.9531002 -3.77786994 -4.524320126
ltibia  -0 0 42.25970078
lfoot  4.450874023e-032 -7.389709949 5.609930038
ltoes  -4.250644065 -19.5611806 -102.515957
366
root  -3.832999928 38.92155445 10.12844476 -49.60601807 -86.52230072 54.47198486
lowerback  14.92430019 5.682620049 -2.247129917
upperback  4.529399872 6.821899891 -2.027450085
thorax  -3.524760008 3.27967 -2.065479994
lowerneck  -3.746370077 4.76116991 -5.000830173
upperneck  2.925930023 6.364009857 6.85875988
head  1.175150037 3.24496007 3.200129986
lclavicle  0 -9.442270133e-015 7.951389973e-016
lhumerus  -9.496709824 -5.601809978 78.50849915
lradius  2.537680127e-031 -2.455407016e-031 135.9440002
lwrist  -7.062250077e-031 7.062250077e-031 49.95709991
lhand  -1.496451383e-031 -27.76390076 20.11240005
lfingers  90 7.125020027 -90
lthumb  89.89689403 5.08795885 91.16245106
rclavicle  0 -9.442270133e-015 7.951389973e-016
rhumerus  -15.37590027 16.65390015 -88.3710022
rradius  -5.072394757e-032 3.494503134e-031 98.25900269
rwrist  3.531125038e-031 7.062250077e-031 -57.95869827
rhand  -7.920061211e-032 -33.2840004 9.303460121
rfingers  -90 -7.125020027 -90
rthumb  -92.93752616 -24.25625642 -97.11982154
rfemur  -13.55790043 13.27630043 3.033770084
rtibia  -0 0 50.11970139
rfoot  -4.784419957e-032 -22.6970005 1.510259986
rtoes  5.373923086 19.29304026 -105.8922705
lfemur  -29.93930054 -4.000229836 -3.907439947
ltibia  -0 0 40.69049835
lfoot  -0 -6.059529781 7.587190151
ltoes  -4.250644065 -19.5611806 -102.515957
367
root  -3.617710955 39.21155554 10.00317776 -84.3170166 -87.48899841 89.53601074
lowerback  14.99919987 5.882959843 -2.172410011
upperback  4.448860168 7.090270042 -1.993880033
thorax  -3.6410501 3.410170078 -2.132649899
lowerneck  -3.852089882 5.141200066 -4.654200077
upperneck  3.188920021 6.865049839 6.332149982
head  1.273980021 3.491739988 2.974489927
lclavicle  0 -9.442270133e-015 7.951389973e-016
lhumerus  -9.091650009 -4.406539917 77.45379639
lradius  2.591226549e-031 -2.398830758e-031 137.2079926
lwrist  0 3.531125038e-031 49.88130188
lhand  -1.496451383e-031 -27.76390076 20.11240005
lfingers  90 7.125020027 -90
lthumb  89.89689403 5.08795885 91.16245106
rclavicle  0 -9.442270133e-015 7.951389973e-016
rhumerus  -14.14400005 17.5102005 -88.27760315
rradius  -6.059192789e-032 3.478750618e-031 99.88050079
rwrist  3.531125038e-031 3.531125038e-031 -57.31930161
rhand  -7.920061211e-032 -33.2840004 9.303460121
rfingers  -90 -7.125020027 -90
rthumb  -92.93752616 -24.25625642 -97.11982154
rfemur  -14.18620014 12.87409973 2.480269909
rtibia  -0 0 48.0060997
rfoot  -4.716127009e-032 -20.62310028 4.704500198
rtoes  5.373923086 19.29304026 -105.8922705
lfemur  -28.95890045 -4.079410076 -3.252320051
ltibia  -0 0 39.07429886
lfoot  -0 -4.6552701 9.43776989
ltoes  -4.250644065 -19.5611806 -102.515957
368
root  -3.397733208 39.51133368 9.883155222 -125.0250244 -87.15879822 130.5800171
lowerback  15.16860008 6.022789955 -2.092250109
upperback  4.363969803 7.277460098 -1.928660035
thorax  -3.816900015 3.499459982 -2.1667099
lowerneck  -3.916330099 5.54681015 -4.320179939
upperneck  3.427550077 7.39989996 5.844359875
head  1.358430028 3.754489899 2.766309977
lclavicle  0 -9.442270133e-015 7.951389973e-016
lhumerus  -8.668029785 -3.130690098 76.26580048
lradius  2.64383922e-031 -2.340717457e-031 138.4799957
lwrist  -7.062250077e-031 3.531125038e-031 49.77830124
lhand  -1.496451383e-031 -27.76390076 20.11240005
lfingers  90 7.125020027 -90
lthumb  89.89689403 5.08795885 91.16245106
rclavicle  0 -9.442270133e-015 7.951389973e-016
rhumerus  -12.80189991 18.20240021 -88.17669678
rradius  -7.177567984e-032 3.457407875e-031 101.7279968
rwrist  7.062250077e-031 7.062250077e-031 -56.70629883
rhand  -7.920061211e-032 -33.2840004 9.303460121
rfingers  -90 -7.125020027 -90
rthumb  -92.93752616 -24.25625642 -97.11982154
rfemur  -14.84290028 12.20339966 2.003079891
rtibia  -0 0 45.98540115
rfoot  -0 -17.99570084 7.840330124
rtoes  5.373923086 19.29304026 -105.8922705
lfemur  -28.07830048 -4.535429955 -2.5072999
ltibia  -0 0 37.54180145
lfoot  -0 -3.190030098 11.56120014
ltoes  -4.250644065 -19.5611806 -102.515957
